{"title":"Sea.Of.Love.[1989].DvdRip.XviD-KnÃƒÂ£","uid":6388711,"size":1174953984,"categoryP":"video","categoryS":"movies","magnet":"?xt=urn:btih:25ad594ba32317c6ba1da4e490bdb1066e947d1f&amp;dn=Sea.Of.Love.%5B1989%5D.DvdRip.XviD-Kn%C3%83%C2%A3&amp;tr=udp%3A%2F%2Ftracker.openbittorrent.com%3A80&amp;tr=udp%3A%2F%2Fopen.demonii.com%3A1337&amp;tr=udp%3A%2F%2Ftracker.coppersurfer.tk%3A6969&amp;tr=udp%3A%2F%2Fexodus.desync.com%3A6969","seeders":0,"leechers":1,"uploader":"Jon.Pson","files":1,"time":1305287118,"description":"In Manhattan, Detective Frank Keller is an efficient and veteran cop with twenty years on the force, who is lonely and misses his ex-wife Denise. She left him to live with his colleague from the same precinct Gruber. When a killer kills his victim with a shot on the neck and leaves a single playing &quot;Sea of Love&quot;, Frank is in charge of the investigation. Detective Sherman, from a district outside Manhattan, joins Frank when a second victim is killed in the same MO. They find that both victims have written poetry in the lonely hearts column of the single magazine &quot;New York Weekly&quot;. When there is a third case, Frank convinces his chief to write for the magazine and work undercover investigating the women that reply the advertisement. Frank falls in love for the prime suspect, the manager of a shoe store Helen Cruger, jeopardizing his investigation.\n\n\nGeneral\nComplete name                    : H:\\Movies\\Sea.Of.Love.[1989].DvdRip.XviD-KnÃƒÂ£\\Sea.Of.Love.[1989].DvdRip.XviD-KnÃƒÂ£.avi\nFormat                           : AVI\nFormat/Info                      : Audio Video Interleave\nFile size                        : 1.09 GiB\nDuration                         : 1h 48mn\nOverall bit rate                 : 1 448 Kbps\nWriting application              : VirtualDubMod 1.5.4.1 (build 2178/release)\nWriting library                  : VirtualDubMod build 2178/release\n\nVideo\nID                               : 0\nFormat                           : MPEG-4 Visual\nFormat profile                   : Advanced Simple@L5\nFormat settings, BVOP            : Yes\nFormat settings, QPel            : No\nFormat settings, GMC             : No warppoints\nFormat settings, Matrix          : Custom\nCodec ID                         : XVID\nCodec ID/Hint                    : XviD\nDuration                         : 1h 48mn\nBit rate                         : 1 249 Kbps\nWidth                            : 720 pixels\nHeight                           : 384 pixels\nDisplay aspect ratio             : 1.875\nFrame rate                       : 25.000 fps\nColor space                      : YUV\nChroma subsampling               : 4:2:0\nBit depth                        : 8 bits\nScan type                        : Progressive\nBits/(Pixel*Frame)               : 0.181\nStream size                      : 967 MiB (86%)\nWriting library                  : XviD 1.2.1 (UTC 2008-12-04)\n\nAudio\nID                               : 1\nFormat                           : AC-3\nFormat/Info                      : Audio Coding 3\nFormat profile                   : Dolby Digital\nMode extension                   : CM (complete main)\nCodec ID                         : 2000\nDuration                         : 1h 48mn\nBit rate mode                    : Constant\nBit rate                         : 192 Kbps\nChannel(s)                       : 2 channels\nChannel positions                : Front: L R\nSampling rate                    : 48.0 KHz\nBit depth                        : 16 bits\nStream size                      : 149 MiB (13%)\nAlignment                        : Aligned on interleaves\nInterleave, duration             : 96 ms (2.40 video frames)\nInterleave, preload duration     : 96 ms\nLanguage                         : English\n\n","torrent":{"xt":"urn:btih:25ad594ba32317c6ba1da4e490bdb1066e947d1f","amp;dn":"Sea.Of.Love.%5B1989%5D.DvdRip.XviD-Kn%C3%83%C2%A3","amp;tr":["udp%3A%2F%2Ftracker.openbittorrent.com%3A80","udp%3A%2F%2Fopen.demonii.com%3A1337","udp%3A%2F%2Ftracker.coppersurfer.tk%3A6969","udp%3A%2F%2Fexodus.desync.com%3A6969"],"infoHash":"25ad594ba32317c6ba1da4e490bdb1066e947d1f","infoHashBuffer":{"type":"Buffer","data":[37,173,89,75,163,35,23,198,186,29,164,228,144,189,177,6,110,148,125,31]},"announce":[],"urlList":[]}}